<?xml version="1.0" encoding="UTF-8"?>
<svg width="24px" height="24px" viewBox="0 0 24 24" version="1.1" xmlns="http://www.w3.org/2000/svg" xmlns:xlink="http://www.w3.org/1999/xlink">
    <title>0816FA8C-A461-4695-9CA9-601C79474016@1.5x</title>
    <g id="Page-1" stroke="none" stroke-width="1" fill="none" fill-rule="evenodd">
        <g id="Mobile-Bookmark-News" transform="translate(-319.000000, -174.000000)">
            <g id="Group" transform="translate(14.000000, 98.000000)">
                <g id="Group-Copy-7" transform="translate(305.000000, 76.000000)">
                    <circle id="Oval" fill="#F3F3F3" cx="12" cy="12" r="12"></circle>
                    <g id="small-bookmark" transform="translate(7.893333, 6.346667)" fill="#787878" fill-rule="nonzero" stroke="#5305FF" stroke-width="0.5">
                        <path d="M8.39832168,0 L0.241678322,0 C0.10803021,0 0,0.101723302 0,0.227060943 L0,10.6866233 C0,10.7776747 0.0577611189,10.8598708 0.14694042,10.8955193 C0.23611972,10.9311679 0.339558042,10.9132301 0.409161399,10.8501071 L4.32,7.31204354 L8.2308386,10.8501071 C8.2765158,10.8916593 8.33693538,10.9136842 8.39832168,10.9136842 C8.43022322,10.9136842 8.46260811,10.9077806 8.49305958,10.8955193 C8.58223888,10.8598708 8.64,10.7774476 8.64,10.6866233 L8.64,0.227060943 C8.64,0.101723302 8.53172811,0 8.39832168,0 Z M8.15664336,10.152803 L4.48748308,6.83339907 C4.44083916,6.79093867 4.38041958,6.76982201 4.32,6.76982201 C4.25958042,6.76982201 4.19916084,6.79093867 4.15251692,6.83339907 L0.483356643,10.152803 L0.483356643,0.454121885 L8.15664336,0.454121885 L8.15664336,10.152803 Z" id="Shape"></path>
                    </g>
                </g>
            </g>
        </g>
    </g>
</svg>