<?xml version="1.0" encoding="UTF-8"?>
<svg width="32px" height="32px" viewBox="0 0 32 32" version="1.1" xmlns="http://www.w3.org/2000/svg" xmlns:xlink="http://www.w3.org/1999/xlink">
    <title>36CE3A58-6A40-4E8D-9D42-D57C80FE0F7D@2x</title>
    <g id="Page-1" stroke="none" stroke-width="1" fill="none" fill-rule="evenodd">
        <g id="Mobile-News" transform="translate(-311.000000, -569.000000)">
            <g id="Group" transform="translate(0.000000, 99.000000)">
                <g id="Group-Copy-10" transform="translate(311.000000, 470.000000)">
                    <circle id="Oval" fill="#F3F3F3" cx="16" cy="16" r="16"></circle>
                    <g id="small-bookmark" transform="translate(10.524444, 8.462222)" fill="#787878" fill-rule="nonzero" stroke="#787878" stroke-width="0.5">
                        <path d="M11.1977622,0 L0.322237762,0 C0.14404028,0 0,0.13563107 0,0.302747924 L0,14.248831 C0,14.3702329 0.0770148252,14.4798277 0.195920559,14.5273591 C0.314826294,14.5748905 0.452744056,14.5509735 0.545548531,14.4668095 L5.76,9.74939138 L10.9744515,14.4668095 C11.0353544,14.5222124 11.1159138,14.5515789 11.1977622,14.5515789 C11.2402976,14.5515789 11.2834775,14.5437075 11.3240794,14.5273591 C11.4429852,14.4798277 11.52,14.3699302 11.52,14.248831 L11.52,0.302747924 C11.52,0.13563107 11.3756375,0 11.1977622,0 Z M10.8755245,13.5370707 L5.98331077,9.11119876 C5.92111888,9.0545849 5.84055944,9.02642934 5.76,9.02642934 C5.67944056,9.02642934 5.59888112,9.0545849 5.53668923,9.11119876 L0.644475524,13.5370707 L0.644475524,0.605495847 L10.8755245,0.605495847 L10.8755245,13.5370707 Z" id="Shape"></path>
                    </g>
                </g>
            </g>
        </g>
    </g>
</svg>