<?xml version="1.0" encoding="UTF-8"?>
<svg width="22px" height="23px" viewBox="0 0 22 23" version="1.1" xmlns="http://www.w3.org/2000/svg" xmlns:xlink="http://www.w3.org/1999/xlink">
    <title>AE2379B2-E041-42B7-B517-915A3BD64C59</title>
    <g id="Page-1" stroke="none" stroke-width="1" fill="none" fill-rule="evenodd">
        <g id="Mobile-News" transform="translate(-321.000000, -40.000000)" fill="#9F9F9F" fill-rule="nonzero">
            <g id="search" transform="translate(321.000000, 40.000000)">
                <path d="M21.6655044,20.6813713 L16.2421281,15.2356318 C17.6365734,13.6352386 18.4005983,11.6216164 18.4005983,9.52534845 C18.4005983,4.62761998 14.2732641,0.642857143 9.20029913,0.642857143 C4.12733419,0.642857143 0,4.62761998 0,9.52534845 C0,14.4230769 4.12733419,18.4078398 9.20029913,18.4078398 C11.1047611,18.4078398 12.9196201,17.8532634 14.4712705,16.800495 L19.9358482,22.2875575 C20.1642556,22.5165713 20.4714656,22.6428571 20.8006763,22.6428571 C21.1122864,22.6428571 21.407896,22.5281571 21.6323033,22.3196117 C22.1091188,21.8766457 22.1243193,21.1421023 21.6655044,20.6813713 Z M9.20029913,2.96002879 C12.950021,2.96002879 16.0005202,5.90515395 16.0005202,9.52534845 C16.0005202,13.145543 12.950021,16.0906681 9.20029913,16.0906681 C5.45057722,16.0906681 2.40007803,13.145543 2.40007803,9.52534845 C2.40007803,5.90515395 5.45057722,2.96002879 9.20029913,2.96002879 Z" id="Shape"></path>
            </g>
        </g>
    </g>
</svg>