<?xml version="1.0" encoding="UTF-8"?>
<svg width="103px" height="33px" viewBox="0 0 103 33" version="1.1" xmlns="http://www.w3.org/2000/svg" xmlns:xlink="http://www.w3.org/1999/xlink">
    <title>D0699288-3002-4541-BC6D-D16E7A7684A8</title>
    <g id="Page-1" stroke="none" stroke-width="1" fill="none" fill-rule="evenodd">
        <g id="Mobile-News" transform="translate(-20.000000, -1161.000000)" fill="#FFFFFF">
            <g id="Group" transform="translate(0.000000, 99.000000)">
                <g id="Group-12" transform="translate(20.000000, 1062.000000)">
                    <g id="world" transform="translate(0.000000, 3.000000)" fill-rule="nonzero">
                        <path d="M23.3634375,5.6615 L22.9815625,5.7825625 L20.947875,5.96375 L20.3734375,6.8810625 L19.956625,6.748625 L18.338125,5.289375 L18.1033125,4.5305 L17.788875,3.72125 L16.771625,2.8088125 L15.5715625,2.574 L15.5439375,3.12325 L16.719625,4.2705 L17.294875,4.948125 L16.648125,5.286125 L16.121625,5.1309375 L15.3326875,4.801875 L15.3595,4.1656875 L14.324375,3.7399375 L13.9806875,5.23575 L12.9374375,5.4721875 L13.040625,6.306625 L14.3999375,6.56825 L14.63475,5.2349375 L15.7568125,5.4006875 L16.2784375,5.7061875 L17.1153125,5.7061875 L17.688125,6.8534375 L19.2066875,8.3939375 L19.095375,8.99275 L17.8709375,8.83675 L15.7551875,9.9051875 L14.23175,11.7325 L14.0335,12.54175 L13.4866875,12.54175 L12.4678125,12.072125 L11.4781875,12.54175 L11.724375,13.5858125 L12.155,13.089375 L12.91225,13.0658125 L12.8594375,14.0034375 L13.4866875,14.1870625 L14.113125,14.8906875 L15.1360625,14.6030625 L16.3044375,14.7875 L17.6613125,15.1523125 L18.3389375,15.2319375 L19.4878125,16.536 L21.705125,17.8400625 L20.2710625,20.5798125 L18.757375,21.2834375 L18.1829375,22.849125 L15.9924375,24.311625 L15.75925,25.155 C21.359,23.80625 25.5246875,18.7760625 25.5246875,12.7619375 C25.5230625,10.135125 24.7268125,7.6903125 23.3634375,5.6615 Z" id="Path"></path>
                        <path d="M14.2309375,19.4325625 L13.3014375,17.70925 L14.1545625,15.9315 L13.3014375,15.676375 L12.3435,14.714375 L10.22125,14.23825 L9.5168125,12.764375 L9.5168125,13.6394375 L9.2064375,13.6394375 L7.3775,11.1596875 L7.3775,9.12275 L6.036875,6.9428125 L3.908125,7.32225 L2.4740625,7.32225 L1.7525625,6.849375 L2.673125,6.11975 L1.755,6.3318125 C0.648375,8.2216875 0.00325,10.414625 0.00325,12.7635625 C0.00325,19.810375 5.7159375,25.5255 12.7635625,25.5255 C13.3063125,25.5255 13.8385,25.4775625 14.365,25.4141875 L14.23175,23.868 C14.23175,23.868 14.8175625,21.571875 14.8175625,21.493875 C14.81675,21.4150625 14.2309375,19.4325625 14.2309375,19.4325625 Z" id="Path"></path>
                        <path d="M4.745,4.1153125 L7.011875,3.79925 L8.05675,3.2264375 L9.2324375,3.56525 L11.1109375,3.46125 L11.7544375,2.4496875 L12.692875,2.6040625 L14.9719375,2.390375 L15.6,1.698125 L16.485625,1.106625 L17.7385,1.295125 L18.195125,1.2260625 C16.5449375,0.4493125 14.7086875,0 12.76275,0 C8.8018125,0 5.260125,1.805375 2.92175,4.6401875 L2.92825,4.6401875 L4.745,4.1153125 Z M13.30225,1.269125 L14.6055,0.5516875 L15.442375,1.035125 L14.2309375,1.9573125 L13.0739375,2.0735 L12.553125,1.7355 L13.30225,1.269125 Z M9.4420625,1.3739375 L10.0173125,1.613625 L10.7705,1.3739375 L11.1808125,2.084875 L9.4420625,2.5415 L8.6059994,2.052375 C8.6051875,2.052375 9.423375,1.525875 9.4420625,1.3739375 Z" id="Shape"></path>
                    </g>
                    <text id="NEWS" font-family="Inter-Regular_Black, Inter" font-size="15" font-weight="700">
                        <tspan x="31" y="29">NEWS</tspan>
                    </text>
                    <text id="Global" font-family="Inter-Regular_Thin, Inter" font-size="14" font-weight="300">
                        <tspan x="31" y="14">Global</tspan>
                    </text>
                </g>
            </g>
        </g>
    </g>
</svg>